<svg width="174" height="39" viewBox="0 0 174 39" fill="none" xmlns="http://www.w3.org/2000/svg">
<path d="M107.497 24.1662C107.497 26.1621 107.139 28.0248 106.423 29.7545C105.706 31.4676 104.732 32.9561 103.5 34.2201C102.267 35.4675 100.818 36.4571 99.1529 37.1889C97.5041 37.9041 95.7305 38.2617 93.8319 38.2617C91.9499 38.2617 90.1763 37.9041 88.5108 37.1889C86.862 36.4571 85.4131 35.4675 84.164 34.2201C82.9316 32.9561 81.9574 31.4676 81.2412 29.7545C80.5251 28.0248 80.167 26.1621 80.167 24.1662C80.167 22.1372 80.5251 20.2578 81.2412 18.5281C81.9574 16.7984 82.9316 15.3098 84.164 14.0625C85.4131 12.7984 86.862 11.8088 88.5108 11.0937C90.1763 10.3785 91.9499 10.0209 93.8319 10.0209C95.7305 10.0209 97.5041 10.3619 99.1529 11.0438C100.818 11.7091 102.267 12.6654 103.5 13.9128C104.732 15.1435 105.706 16.6321 106.423 18.3784C107.139 20.1081 107.497 22.0374 107.497 24.1662ZM100.627 24.1662C100.627 23.0685 100.444 22.079 100.077 21.1975C99.7275 20.2994 99.2445 19.5343 98.6283 18.9023C98.0121 18.2537 97.2876 17.763 96.4549 17.4304C95.6389 17.0811 94.7645 16.9065 93.8319 16.9065C92.8992 16.9065 92.0166 17.0811 91.1838 17.4304C90.3678 17.763 89.6516 18.2537 89.0354 18.9023C88.4359 19.5343 87.9612 20.2994 87.6115 21.1975C87.2617 22.079 87.0869 23.0685 87.0869 24.1662C87.0869 25.1974 87.2617 26.1537 87.6115 27.0352C87.9612 27.9167 88.4359 28.6818 89.0354 29.3304C89.6516 29.979 90.3678 30.4946 91.1838 30.8772C92.0166 31.2431 92.8992 31.426 93.8319 31.426C94.7645 31.426 95.6389 31.2514 96.4549 30.9021C97.2876 30.5528 98.0121 30.0622 98.6283 29.4302C99.2445 28.7982 99.7275 28.0331 100.077 27.135C100.444 26.2369 100.627 25.2473 100.627 24.1662Z" fill="white"/>
<path d="M136.648 24.1662C136.648 26.1621 136.29 28.0248 135.574 29.7545C134.858 31.4676 133.884 32.9561 132.651 34.2201C131.419 35.4675 129.97 36.4571 128.305 37.1889C126.656 37.9041 124.882 38.2617 122.984 38.2617C121.102 38.2617 119.328 37.9041 117.663 37.1889C116.014 36.4571 114.565 35.4675 113.316 34.2201C112.083 32.9561 111.109 31.4676 110.393 29.7545C109.677 28.0248 109.319 26.1621 109.319 24.1662C109.319 22.1372 109.677 20.2578 110.393 18.5281C111.109 16.7984 112.083 15.3098 113.316 14.0625C114.565 12.7984 116.014 11.8088 117.663 11.0937C119.328 10.3785 121.102 10.0209 122.984 10.0209C124.882 10.0209 126.656 10.3619 128.305 11.0438C129.97 11.7091 131.419 12.6654 132.651 13.9128C133.884 15.1435 134.858 16.6321 135.574 18.3784C136.29 20.1081 136.648 22.0374 136.648 24.1662ZM129.779 24.1662C129.779 23.0685 129.595 22.079 129.229 21.1975C128.879 20.2994 128.396 19.5343 127.78 18.9023C127.164 18.2537 126.439 17.763 125.607 17.4304C124.791 17.0811 123.916 16.9065 122.984 16.9065C122.051 16.9065 121.168 17.0811 120.336 17.4304C119.52 17.763 118.803 18.2537 118.187 18.9023C117.588 19.5343 117.113 20.2994 116.763 21.1975C116.413 22.079 116.239 23.0685 116.239 24.1662C116.239 25.1974 116.413 26.1537 116.763 27.0352C117.113 27.9167 117.588 28.6818 118.187 29.3304C118.803 29.979 119.52 30.4946 120.336 30.8772C121.168 31.2431 122.051 31.426 122.984 31.426C123.916 31.426 124.791 31.2514 125.607 30.9021C126.439 30.5528 127.164 30.0622 127.78 29.4302C128.396 28.7982 128.879 28.0331 129.229 27.135C129.595 26.2369 129.779 25.2473 129.779 24.1662Z" fill="white"/>
<path fill-rule="evenodd" clip-rule="evenodd" d="M30.974 8.19892C30.974 12.7271 27.3032 16.3978 22.775 16.3978C18.2469 16.3978 14.5761 12.7271 14.5761 8.19892C14.5761 3.67078 18.2469 0 22.775 0C27.3032 0 30.974 3.67078 30.974 8.19892ZM27.3297 8.19907C27.3297 10.7147 25.2903 12.754 22.7747 12.754C20.2591 12.754 18.2198 10.7147 18.2198 8.19907C18.2198 5.68344 20.2591 3.64412 22.7747 3.64412C25.2903 3.64412 27.3297 5.68344 27.3297 8.19907Z" fill="white"/>
<path fill-rule="evenodd" clip-rule="evenodd" d="M8.19892 16.3978C12.7271 16.3978 16.3978 12.7271 16.3978 8.19892C16.3978 3.67078 12.7271 0 8.19892 0C3.67078 0 0 3.67078 0 8.19892C0 12.7271 3.67078 16.3978 8.19892 16.3978ZM8.19925 12.754C10.7149 12.754 12.7542 10.7147 12.7542 8.19907C12.7542 5.68344 10.7149 3.64412 8.19925 3.64412C5.68362 3.64412 3.64429 5.68344 3.64429 8.19907C3.64429 10.7147 5.68362 12.754 8.19925 12.754Z" fill="white"/>
<path fill-rule="evenodd" clip-rule="evenodd" d="M15.487 15.2592C17.2226 17.2912 19.7904 18.716 22.6297 18.716C26.1231 18.716 29.1084 17.009 30.7461 14.1205H30.9739V35.3094C30.9739 36.9405 29.6833 38.2617 28.0901 38.2617H2.88393C1.29075 38.2617 0.000175476 36.9405 0.000175476 35.3094V14.1205H0.204887C1.84258 17.009 4.89545 18.716 8.38889 18.716C11.2281 18.716 13.7514 17.2867 15.487 15.2592ZM13.6415 29.5258L18.8361 26.4831C19.2288 26.2521 19.2288 25.6746 18.8401 25.4437L13.6415 22.401C13.245 22.17 12.7542 22.4568 12.7542 22.9187V29.008C12.7542 29.47 13.2489 29.7567 13.6415 29.5258Z" fill="white"/>
<path d="M33.0237 21.2262C32.9345 21.3081 32.7959 21.4415 32.7959 21.4415V30.4852C32.7959 30.4852 32.9345 30.6166 33.0237 30.7005C36.0802 33.5737 41.58 37.2918 41.58 37.2918C43.1848 38.5162 45.5498 37.4179 45.5498 35.4409V16.485C45.5498 14.5121 43.1848 13.4098 41.58 14.6342C41.58 14.6342 36.1151 18.3862 33.0237 21.2262Z" fill="white"/>
<path d="M78.3451 24.0113C78.3451 26.1299 77.987 28.0636 77.2709 29.8123C76.5548 31.561 75.5805 33.0659 74.3481 34.327C73.1156 35.5713 71.6667 36.5381 70.0013 37.2275C68.3525 37.9169 66.5788 38.2616 64.6802 38.2616C62.7983 38.2616 61.0246 37.9085 59.3592 37.2023C57.7104 36.4961 56.2615 35.5124 55.0124 34.2513C53.78 32.9902 52.8057 31.4937 52.0896 29.7618C51.3735 28.0131 51.0154 26.0963 51.0154 24.0113V0H57.8603V12.611C58.2267 12.1401 58.668 11.7198 59.1843 11.3499C59.7173 10.9799 60.2835 10.6773 60.8831 10.4419C61.4993 10.2065 62.1321 10.0299 62.7817 9.91221C63.4312 9.77769 64.064 9.71043 64.6802 9.71043C66.5788 9.71043 68.3525 10.0719 70.0013 10.795C71.6667 11.5012 73.1156 12.4932 74.3481 13.7712C75.5805 15.0491 76.5548 16.5624 77.2709 18.3111C77.987 20.043 78.3451 21.9431 78.3451 24.0113ZM71.4752 24.0113C71.4752 22.9687 71.292 22.0019 70.9256 21.1107C70.5759 20.2027 70.0929 19.4209 69.4767 18.7651C68.8605 18.1093 68.136 17.5965 67.3033 17.2266C66.4872 16.8566 65.6129 16.6717 64.6802 16.6717C63.7476 16.6717 62.8649 16.8819 62.0322 17.3022C61.2161 17.7058 60.5 18.2523 59.8838 18.9416C59.2676 19.6142 58.7846 20.3961 58.4349 21.2873C58.0851 22.1616 57.9103 23.0696 57.9103 24.0113C57.9103 25.0538 58.0851 26.0206 58.4349 26.9118C58.7846 27.8029 59.2676 28.5764 59.8838 29.2322C60.5 29.888 61.2161 30.4092 62.0322 30.7959C62.8649 31.1659 63.7476 31.3508 64.6802 31.3508C65.6129 31.3508 66.4872 31.1659 67.3033 30.7959C68.136 30.4092 68.8605 29.888 69.4767 29.2322C70.0929 28.5764 70.5759 27.8029 70.9256 26.9118C71.292 26.0206 71.4752 25.0538 71.4752 24.0113Z" fill="white"/>
<path d="M174 38.2617H166.905V20.6436C166.905 20.16 166.809 19.7022 166.618 19.2704C166.444 18.8386 166.192 18.4586 165.861 18.1304C165.531 17.8022 165.148 17.5518 164.714 17.3791C164.279 17.1891 163.818 17.0941 163.331 17.0941C162.844 17.0941 162.383 17.1891 161.949 17.3791C161.531 17.5518 161.157 17.8022 160.827 18.1304C160.514 18.4586 160.262 18.8386 160.07 19.2704C159.896 19.7022 159.81 20.16 159.81 20.6436V38.2617H152.688V20.6436C152.688 20.16 152.592 19.7022 152.401 19.2704C152.227 18.8386 151.975 18.4586 151.645 18.1304C151.314 17.8022 150.932 17.5518 150.497 17.3791C150.062 17.1891 149.601 17.0941 149.114 17.0941C148.627 17.0941 148.167 17.1891 147.732 17.3791C147.314 17.5518 146.941 17.8022 146.61 18.1304C146.297 18.4586 146.045 18.8386 145.854 19.2704C145.68 19.7022 145.593 20.16 145.593 20.6436V38.2617H138.471V10.0209C138.471 10.0209 139.652 10.047 140.293 10.2487C141.366 10.5862 142.123 12.6377 142.123 12.6377C143.115 11.8087 144.202 11.1696 145.384 10.7205C146.584 10.2541 147.828 10.0209 149.114 10.0209C150.419 10.0209 151.688 10.2628 152.923 10.7464C154.175 11.23 155.271 12.0677 156.21 13.2596C156.644 12.6723 157.14 12.1714 157.697 11.7568C158.253 11.3423 158.836 11.0055 159.444 10.7464C160.07 10.4873 160.714 10.3059 161.375 10.2023C162.035 10.0814 162.688 10.0209 163.331 10.0209C164.809 10.0209 166.192 10.2973 167.479 10.85C168.783 11.4027 169.913 12.1627 170.87 13.13C171.844 14.08 172.609 15.2027 173.165 16.4982C173.722 17.7936 174 19.1754 174 20.6436V38.2617Z" fill="white"/>
</svg>
