<svg width="71" height="20" viewBox="0 0 71 20" fill="none" xmlns="http://www.w3.org/2000/svg">
<g filter="url(#filter0_b_2_16118)">
<path d="M17 18L13.4 14.4M15.4 9.2C15.4 13.1765 12.1765 16.4 8.2 16.4C4.22355 16.4 1 13.1765 1 9.2C1 5.22355 4.22355 2 8.2 2C12.1765 2 15.4 5.22355 15.4 9.2Z" stroke="#989999" stroke-linecap="round"/>
</g>
<path d="M30.8011 7.36364C30.7415 6.85985 30.4995 6.46875 30.0753 6.19034C29.651 5.91193 29.1307 5.77273 28.5142 5.77273C28.0634 5.77273 27.669 5.84564 27.331 5.99148C26.9962 6.13731 26.7344 6.33783 26.5455 6.59304C26.3598 6.84825 26.267 7.13826 26.267 7.46307C26.267 7.73485 26.3317 7.96851 26.4609 8.16406C26.5935 8.3563 26.7625 8.51705 26.968 8.64631C27.1735 8.77225 27.389 8.87666 27.6143 8.95952C27.8397 9.03906 28.0469 9.10369 28.2358 9.15341L29.2699 9.43182C29.535 9.50142 29.83 9.59754 30.1548 9.72017C30.483 9.8428 30.7962 10.0102 31.0945 10.2223C31.3961 10.4311 31.6446 10.6996 31.8402 11.0277C32.0357 11.3558 32.1335 11.7585 32.1335 12.2358C32.1335 12.786 31.9893 13.2831 31.701 13.7273C31.416 14.1714 30.9983 14.5244 30.4482 14.7862C29.9013 15.0481 29.2367 15.179 28.4545 15.179C27.7254 15.179 27.094 15.0613 26.5604 14.826C26.0301 14.5907 25.6125 14.2625 25.3075 13.8416C25.0059 13.4207 24.8352 12.9318 24.7955 12.375H26.0682C26.1013 12.7595 26.2306 13.0777 26.456 13.3295C26.6847 13.5781 26.973 13.7637 27.321 13.8864C27.6723 14.0057 28.0502 14.0653 28.4545 14.0653C28.9252 14.0653 29.3478 13.9891 29.7223 13.8366C30.0968 13.6809 30.3935 13.4654 30.6122 13.1903C30.831 12.9119 30.9403 12.5871 30.9403 12.2159C30.9403 11.8778 30.8459 11.6027 30.657 11.3906C30.468 11.1785 30.2195 11.0062 29.9112 10.8736C29.603 10.741 29.2699 10.625 28.9119 10.5256L27.6591 10.1676C26.8636 9.93892 26.2339 9.61245 25.7699 9.18821C25.3059 8.76397 25.0739 8.20881 25.0739 7.52273C25.0739 6.95265 25.228 6.45549 25.5362 6.03125C25.8478 5.60369 26.2654 5.27225 26.7891 5.03693C27.3161 4.7983 27.9044 4.67898 28.554 4.67898C29.2102 4.67898 29.7936 4.79664 30.304 5.03196C30.8144 5.26397 31.2188 5.58215 31.517 5.98651C31.8187 6.39086 31.9777 6.8499 31.9943 7.36364H30.8011ZM37.2033 15.1591C36.4675 15.1591 35.8328 14.9967 35.2992 14.6719C34.7689 14.3438 34.3596 13.8864 34.0712 13.2997C33.7862 12.7098 33.6436 12.0237 33.6436 11.2415C33.6436 10.4593 33.7862 9.76989 34.0712 9.1733C34.3596 8.57339 34.7606 8.10606 35.2743 7.77131C35.7914 7.43324 36.3946 7.2642 37.084 7.2642C37.4817 7.2642 37.8745 7.33049 38.2623 7.46307C38.65 7.59564 39.003 7.81108 39.3212 8.10938C39.6394 8.40436 39.8929 8.79545 40.0819 9.28267C40.2708 9.76989 40.3652 10.3698 40.3652 11.0824V11.5795H34.4789V10.5653H39.1721C39.1721 10.1345 39.0859 9.75 38.9135 9.41193C38.7445 9.07386 38.5025 8.80705 38.1877 8.61151C37.8761 8.41596 37.5082 8.31818 37.084 8.31818C36.6167 8.31818 36.2123 8.43419 35.8709 8.66619C35.5328 8.89489 35.2727 9.19318 35.0904 9.56108C34.9081 9.92898 34.8169 10.3234 34.8169 10.7443V11.4205C34.8169 11.9972 34.9164 12.486 35.1152 12.8871C35.3174 13.2848 35.5975 13.5881 35.9554 13.7969C36.3134 14.0024 36.7293 14.1051 37.2033 14.1051C37.5115 14.1051 37.79 14.062 38.0385 13.9759C38.2904 13.8864 38.5075 13.7538 38.6898 13.5781C38.8721 13.3991 39.013 13.1771 39.1124 12.9119L40.2459 13.2301C40.1266 13.6146 39.9261 13.9527 39.6444 14.2443C39.3626 14.5327 39.0146 14.758 38.6003 14.9205C38.186 15.0795 37.7203 15.1591 37.2033 15.1591ZM44.3972 15.179C43.9133 15.179 43.4741 15.0878 43.0797 14.9055C42.6853 14.7199 42.3721 14.4531 42.1401 14.1051C41.9081 13.7538 41.7921 13.3295 41.7921 12.8324C41.7921 12.3949 41.8783 12.0402 42.0506 11.7685C42.223 11.4934 42.4533 11.2779 42.7417 11.1222C43.03 10.9664 43.3482 10.8504 43.6962 10.7741C44.0475 10.6946 44.4005 10.6316 44.7551 10.5852C45.2192 10.5256 45.5953 10.4808 45.8837 10.451C46.1754 10.4179 46.3875 10.3632 46.5201 10.2869C46.656 10.2107 46.7239 10.0781 46.7239 9.8892V9.84943C46.7239 9.3589 46.5897 8.97775 46.3212 8.70597C46.056 8.43419 45.6534 8.2983 45.1131 8.2983C44.553 8.2983 44.1138 8.42093 43.7956 8.66619C43.4775 8.91146 43.2537 9.1733 43.1245 9.4517L42.0108 9.05398C42.2097 8.58996 42.4748 8.22869 42.8063 7.97017C43.141 7.70833 43.5056 7.52604 43.9 7.4233C44.2978 7.31723 44.6889 7.2642 45.0733 7.2642C45.3186 7.2642 45.6003 7.29403 45.9185 7.35369C46.24 7.41004 46.5499 7.5277 46.8482 7.70668C47.1498 7.88565 47.4 8.15578 47.5989 8.51705C47.7978 8.87831 47.8972 9.36222 47.8972 9.96875V15H46.7239V13.9659H46.6642C46.5847 14.1316 46.4521 14.3089 46.2665 14.4979C46.0809 14.6868 45.834 14.8475 45.5257 14.9801C45.2175 15.1127 44.8413 15.179 44.3972 15.179ZM44.5762 14.125C45.0402 14.125 45.4313 14.0339 45.7495 13.8516C46.071 13.6693 46.3129 13.4339 46.4753 13.1456C46.641 12.8572 46.7239 12.554 46.7239 12.2358V11.1619C46.6742 11.2216 46.5648 11.2763 46.3958 11.326C46.2301 11.3724 46.0378 11.4138 45.8191 11.4503C45.6036 11.4834 45.3932 11.5133 45.1877 11.5398C44.9855 11.563 44.8214 11.5829 44.6955 11.5994C44.3906 11.6392 44.1055 11.7038 43.8404 11.7933C43.5785 11.8795 43.3664 12.0104 43.204 12.1861C43.0449 12.3584 42.9654 12.5937 42.9654 12.892C42.9654 13.2997 43.1162 13.608 43.4178 13.8168C43.7227 14.0223 44.1088 14.125 44.5762 14.125ZM50.0387 15V7.36364H51.1722V8.51705H51.2518C51.391 8.1392 51.6429 7.83262 52.0075 7.5973C52.372 7.36198 52.783 7.24432 53.2404 7.24432C53.3266 7.24432 53.4343 7.24597 53.5636 7.24929C53.6928 7.2526 53.7906 7.25758 53.8569 7.2642V8.45739C53.8171 8.44744 53.726 8.43253 53.5835 8.41264C53.4442 8.38944 53.2968 8.37784 53.141 8.37784C52.7698 8.37784 52.4383 8.45573 52.1467 8.61151C51.8583 8.76397 51.6296 8.97609 51.4606 9.24787C51.2949 9.51634 51.212 9.82292 51.212 10.1676V15H50.0387ZM58.1175 15.1591C57.4016 15.1591 56.7852 14.9901 56.2681 14.652C55.7511 14.3139 55.3533 13.8482 55.0749 13.255C54.7965 12.6617 54.6573 11.9839 54.6573 11.2216C54.6573 10.446 54.7998 9.7616 55.0849 9.16832C55.3732 8.57173 55.7743 8.10606 56.288 7.77131C56.805 7.43324 57.4083 7.2642 58.0977 7.2642C58.6346 7.2642 59.1185 7.36364 59.5494 7.5625C59.9802 7.76136 60.3332 8.03977 60.6083 8.39773C60.8834 8.75568 61.0541 9.1733 61.1204 9.65057H59.9471C59.8576 9.30256 59.6587 8.99432 59.3505 8.72585C59.0456 8.45407 58.6346 8.31818 58.1175 8.31818C57.6602 8.31818 57.2591 8.4375 56.9144 8.67614C56.573 8.91146 56.3062 9.24455 56.114 9.67543C55.9251 10.103 55.8306 10.6051 55.8306 11.1818C55.8306 11.7718 55.9234 12.2855 56.109 12.723C56.2979 13.1605 56.5631 13.5002 56.9045 13.7422C57.2492 13.9841 57.6535 14.1051 58.1175 14.1051C58.4225 14.1051 58.6992 14.0521 58.9478 13.946C59.1964 13.84 59.4068 13.6875 59.5792 13.4886C59.7515 13.2898 59.8742 13.0511 59.9471 12.7727H61.1204C61.0541 13.2235 60.89 13.6295 60.6282 13.9908C60.3697 14.3487 60.0266 14.6338 59.5991 14.8459C59.1748 15.0547 58.681 15.1591 58.1175 15.1591ZM64.0089 10.4062V15H62.8356V4.81818H64.0089V8.55682H64.1083C64.2873 8.16241 64.5558 7.84919 64.9137 7.61719C65.275 7.38187 65.7556 7.2642 66.3555 7.2642C66.8758 7.2642 67.3316 7.36861 67.7227 7.57741C68.1138 7.78291 68.417 8.09943 68.6325 8.52699C68.8512 8.95123 68.9606 9.49148 68.9606 10.1477V15H67.7873V10.2273C67.7873 9.62074 67.6299 9.15175 67.315 8.82031C67.0034 8.48556 66.5709 8.31818 66.0174 8.31818C65.6329 8.31818 65.2882 8.39938 64.9833 8.56179C64.6817 8.72419 64.4431 8.96117 64.2674 9.27273C64.0951 9.58428 64.0089 9.96212 64.0089 10.4062Z" fill="#989999"/>
<defs>
<filter id="filter0_b_2_16118" x="-19.5" y="-18.5" width="57" height="57" filterUnits="userSpaceOnUse" color-interpolation-filters="sRGB">
<feFlood flood-opacity="0" result="BackgroundImageFix"/>
<feGaussianBlur in="BackgroundImageFix" stdDeviation="10"/>
<feComposite in2="SourceAlpha" operator="in" result="effect1_backgroundBlur_2_16118"/>
<feBlend mode="normal" in="SourceGraphic" in2="effect1_backgroundBlur_2_16118" result="shape"/>
</filter>
</defs>
</svg>
