<svg width="35" height="30" viewBox="0 0 35 30" fill="none" xmlns="http://www.w3.org/2000/svg">
<path fill-rule="evenodd" clip-rule="evenodd" d="M23.4975 6.21999C23.4975 9.65514 20.7128 12.4399 17.2776 12.4399C13.8425 12.4399 11.0577 9.65514 11.0577 6.21999C11.0577 2.78485 13.8425 0.00012207 17.2776 0.00012207C20.7128 0.00012207 23.4975 2.78485 23.4975 6.21999ZM20.733 6.22017C20.733 8.12858 19.1859 9.67565 17.2775 9.67565C15.3691 9.67565 13.822 8.12858 13.822 6.22017C13.822 4.31176 15.3691 2.76468 17.2775 2.76468C19.1859 2.76468 20.733 4.31176 20.733 6.22017Z" fill="white"/>
<path fill-rule="evenodd" clip-rule="evenodd" d="M6.21987 12.4397C9.65501 12.4397 12.4397 9.65501 12.4397 6.21987C12.4397 2.78473 9.65501 0 6.21987 0C2.78473 0 0 2.78473 0 6.21987C0 9.65501 2.78473 12.4397 6.21987 12.4397ZM6.2203 9.67553C8.12871 9.67553 9.67579 8.12846 9.67579 6.22005C9.67579 4.31163 8.12871 2.76456 6.2203 2.76456C4.31189 2.76456 2.76482 4.31163 2.76482 6.22005C2.76482 8.12846 4.31189 9.67553 6.2203 9.67553Z" fill="white"/>
<path fill-rule="evenodd" clip-rule="evenodd" d="M11.7486 11.5762C13.0653 13.1177 15.0133 14.1986 17.1672 14.1986C19.8174 14.1986 22.0821 12.9036 23.3245 10.7123H23.4973V26.7866C23.4973 28.024 22.5182 29.0263 21.3096 29.0263H2.18768C0.979054 29.0263 0 28.024 0 26.7866V10.7123H0.155298C1.39768 12.9036 3.71365 14.1986 6.36385 14.1986C8.51777 14.1986 10.432 13.1142 11.7486 11.5762ZM10.3485 22.3988L14.2893 20.0906C14.5871 19.9153 14.5871 19.4773 14.2923 19.302L10.3485 16.9938C10.0477 16.8186 9.67538 17.0361 9.67538 17.3866V22.006C9.67538 22.3565 10.0507 22.574 10.3485 22.3988Z" fill="white"/>
<path d="M25.0524 16.1028C24.9848 16.165 24.8796 16.2662 24.8796 16.2662V23.1269C24.8796 23.1269 24.9847 23.2266 25.0524 23.2902C27.3712 25.4699 31.5435 28.2905 31.5435 28.2905C32.7609 29.2194 34.555 28.3862 34.555 26.8864V12.5061C34.555 11.0094 32.7609 10.1731 31.5435 11.102C31.5435 11.102 27.3976 13.9484 25.0524 16.1028Z" fill="white"/>
</svg>
