<svg width="24" height="24" viewBox="0 0 24 24" fill="none" xmlns="http://www.w3.org/2000/svg">
<g filter="url(#filter0_b_271_3385)">
<path d="M4.20915 11.1592L4.83059 11.0926C4.80422 10.8465 4.7876 10.6092 4.7876 10.3681C4.7876 6.13352 8.4726 2.625 13.0813 2.625C17.69 2.625 21.375 6.13352 21.375 10.3681C21.375 12.6981 20.2984 14.8452 18.3789 16.3235C18.2034 16.4586 18.1126 16.6764 18.1401 16.8962L18.4561 19.4235C18.4561 19.4242 18.4562 19.4248 18.4563 19.4255C18.5023 19.8222 18.331 20.1846 18.0023 20.3985C17.839 20.5032 17.6489 20.5592 17.4662 20.5592C17.2862 20.5592 17.1107 20.5132 16.9526 20.4172L16.9527 20.4172L16.9473 20.414L13.2141 18.1986C13.1219 18.1439 13.0172 18.1139 12.91 18.1113C12.5377 18.1024 12.1737 18.076 11.8334 18.025L11.8323 18.0248C11.8005 18.0201 11.7764 18.0003 11.7654 17.9718C11.759 17.955 11.7594 17.944 11.7605 17.9373C11.7618 17.9305 11.7654 17.9193 11.7777 17.9049C12.4875 17.0769 12.8591 16.0769 12.8591 15.0128C12.8591 12.3697 10.5491 10.3015 7.81201 10.3015C6.78734 10.3015 5.79362 10.5834 4.95135 11.136C4.93681 11.1448 4.92372 11.1482 4.91262 11.149C4.90222 11.1497 4.8896 11.1484 4.87467 11.1424C4.86107 11.135 4.84963 11.1249 4.84169 11.1142C4.8334 11.103 4.83075 11.0938 4.83003 11.0876L4.20915 11.1592ZM4.20915 11.1592C4.23708 11.4013 4.39534 11.6061 4.60946 11.7084L18.3413 20.9236C18.872 20.5792 19.1513 19.9835 19.0768 19.3505L18.7602 16.8186C20.827 15.2269 22 12.8999 22 10.3681C22 5.7512 17.9968 2 13.0813 2C8.16578 2 4.1626 5.7512 4.1626 10.3681C4.1626 10.638 4.18122 10.8986 4.20915 11.1592ZM12.513 17.051C12.4126 17.2519 12.4276 17.4912 12.5524 17.6779C12.6742 17.8601 12.8823 17.9649 13.1005 17.9549C13.1086 17.9603 13.1168 17.9654 13.1251 17.9703L17.0199 20.2845C17.1755 20.3807 17.3536 20.4276 17.537 20.4119C17.7074 20.3973 17.839 20.3324 17.9245 20.277C18.1135 20.1568 18.3683 19.8726 18.3094 19.437L17.9477 16.5071C17.9444 16.4678 17.9613 16.438 17.9807 16.4228C20.0325 14.9817 21.2286 12.7686 21.2286 10.3494C21.2286 6.11632 17.5333 2.7526 13.0813 2.7526C8.79618 2.7526 5.21099 5.87554 4.94473 9.88924C4.9306 10.1022 5.02614 10.3077 5.19809 10.4341C5.37005 10.5606 5.59465 10.5905 5.79373 10.5136C6.42272 10.2704 7.10055 10.1367 7.8027 10.1367C10.7048 10.1367 12.9963 12.3487 12.9963 14.9942H12.9962L12.9963 15.0013C13.0044 15.7146 12.8346 16.408 12.513 17.051ZM17.6807 19.2234L17.6727 19.2186C17.6755 19.2202 17.6781 19.2218 17.6807 19.2234Z" stroke="#E9E9E9" stroke-width="1.25" stroke-linejoin="round"/>
<path d="M7.81107 19.6929C9.35029 19.6924 10.8246 19.0342 11.771 17.886C12.4733 17.0547 12.8564 16.0583 12.8564 14.9909C12.8564 12.3561 10.5454 10.2889 7.80927 10.2889C6.78357 10.2889 5.78883 10.5713 4.94599 11.125C3.58918 11.9956 2.76215 13.4338 2.76215 15.0002C2.76215 16.5073 3.50273 17.8781 4.78157 18.7533C4.79363 18.762 4.8017 18.7723 4.80696 18.7841C4.81214 18.7956 4.81563 18.8109 4.81419 18.8299L4.61059 20.4123C4.58008 20.6494 4.68747 20.8831 4.88724 21.0144C5.08701 21.1456 5.34416 21.1515 5.54968 21.0294L7.77187 19.7093C7.7953 19.6959 7.80857 19.6933 7.81107 19.6929ZM7.81107 19.6929C7.81047 19.6929 7.80987 19.6929 7.80927 19.6929C7.8108 19.6929 7.81154 19.6928 7.8115 19.6928C7.81148 19.6928 7.81134 19.6928 7.81107 19.6929ZM4.74329 21.2717L4.74043 21.2698C4.51992 21.1278 4.40892 20.8937 4.43596 20.6412L4.62139 19.2135C4.64927 18.9989 4.56414 18.7852 4.39636 18.6485C3.27883 17.7381 2.625 16.3959 2.625 15.0002C2.625 13.408 3.45756 11.9084 4.87747 11.0035L4.87749 11.0035L4.88232 11.0004C5.73755 10.4441 6.75448 10.1427 7.81858 10.1427C10.7207 10.1427 13.0122 12.3546 13.0122 15.0002C13.0122 16.0779 12.6198 17.1445 11.8959 17.9917L11.8958 17.9916L11.8889 18C10.9585 19.1279 9.55789 19.7983 7.99394 19.8487C7.88846 19.8521 7.78556 19.8822 7.69483 19.9361L5.42459 21.285C5.42438 21.2851 5.42416 21.2853 5.42394 21.2854C5.32067 21.3463 5.20823 21.375 5.09083 21.375C4.96646 21.375 4.85293 21.3432 4.74329 21.2717Z" stroke="#E9E9E9" stroke-width="1.25" stroke-linejoin="round"/>
<path d="M9.49915 8.2511H16.9982" stroke="#E9E9E9" stroke-width="1.25" stroke-linecap="round"/>
<path d="M11.9988 12.0017L16.9982 12.0017" stroke="#E9E9E9" stroke-width="1.25" stroke-linecap="round"/>
<path d="M5.74951 13.8771H9.49906" stroke="#E9E9E9" stroke-width="1.25" stroke-linecap="round"/>
<path d="M6.99939 16.3774H9.49909" stroke="#E9E9E9" stroke-width="1.25" stroke-linecap="round"/>
</g>
<defs>
<filter id="filter0_b_271_3385" x="-18" y="-18" width="60" height="60" filterUnits="userSpaceOnUse" color-interpolation-filters="sRGB">
<feFlood flood-opacity="0" result="BackgroundImageFix"/>
<feGaussianBlur in="BackgroundImageFix" stdDeviation="10"/>
<feComposite in2="SourceAlpha" operator="in" result="effect1_backgroundBlur_271_3385"/>
<feBlend mode="normal" in="SourceGraphic" in2="effect1_backgroundBlur_271_3385" result="shape"/>
</filter>
</defs>
</svg>
