<svg width="24" height="24" viewBox="0 0 24 24" fill="none" xmlns="http://www.w3.org/2000/svg">
<g filter="url(#filter0_b_271_1547)">
<g filter="url(#filter1_b_271_1547)">
<path d="M13.8351 20.4491C13.8351 20.4487 13.835 20.4483 13.8348 20.4479L13.3105 19.5068C12.7385 18.4802 11.2617 18.4802 10.6898 19.5068L10.1651 20.4485C9.99936 20.7457 9.72657 20.9626 9.40665 21.0515C9.08674 21.1404 8.74586 21.0941 8.45887 20.9227L6.29262 19.627C6.00553 19.4552 5.79605 19.1722 5.71025 18.8403C5.62445 18.5084 5.66937 18.1548 5.83512 17.8572L6.4276 16.7938C6.98467 15.794 6.26181 14.5638 5.11726 14.5638H4.00012C3.6686 14.5638 3.35066 14.4273 3.11624 14.1843C2.88182 13.9413 2.75012 13.6118 2.75012 13.2682V10.6769C2.75012 10.3333 2.88182 10.0038 3.11624 9.76078C3.35066 9.5178 3.6686 9.3813 4.00012 9.3813H5.11726C6.2618 9.3813 6.98467 8.15105 6.4276 7.15122L5.83512 6.08784C5.75285 5.94044 5.69943 5.77768 5.6779 5.60886C5.65637 5.44004 5.66716 5.26848 5.70965 5.10398C5.75214 4.93949 5.8255 4.78529 5.92553 4.65021C6.02556 4.51512 6.1503 4.4018 6.29262 4.31673L8.45762 3.02111C8.74472 2.84931 9.0859 2.80275 9.40612 2.89168C9.72634 2.98061 9.99936 3.19774 10.1651 3.49531L10.6901 4.43792C11.2619 5.46461 12.7387 5.46482 13.3108 4.4383L13.8364 3.49531C14.0021 3.19809 14.2749 2.98121 14.5948 2.8923C14.9148 2.80339 15.2556 2.84972 15.5426 3.02111L17.7089 4.31673C17.9956 4.48854 18.2049 4.77129 18.2906 5.10288C18.3764 5.43447 18.3317 5.78779 18.1664 6.08525L17.5725 7.15128C17.0155 8.15111 17.7383 9.3813 18.8829 9.3813H20.0001C20.3316 9.3813 20.6496 9.5178 20.884 9.76078C21.1184 10.0038 21.2501 10.3333 21.2501 10.6769V13.2682C21.2501 13.6118 21.1184 13.9413 20.884 14.1843C20.6496 14.4273 20.3316 14.5638 20.0001 14.5638H18.8825C17.7381 14.5638 17.0152 15.7938 17.572 16.7936L18.1651 17.8585C18.3309 18.1561 18.3758 18.5097 18.29 18.8416C18.2042 19.1735 17.9947 19.4565 17.7076 19.6283L15.5426 20.924C15.2555 21.0958 14.9143 21.1423 14.5941 21.0534C14.2741 20.9645 14.0012 20.7476 13.8354 20.4503C13.8352 20.45 13.8351 20.4495 13.8351 20.4491V20.4491Z" stroke="#E9E9E9" stroke-width="1.25" stroke-linejoin="round"/>
<circle cx="12" cy="12" r="3.125" stroke="#E9E9E9" stroke-width="1.25"/>
</g>
</g>
<defs>
<filter id="filter0_b_271_1547" x="-20" y="-20" width="64" height="64" filterUnits="userSpaceOnUse" color-interpolation-filters="sRGB">
<feFlood flood-opacity="0" result="BackgroundImageFix"/>
<feGaussianBlur in="BackgroundImageFix" stdDeviation="10"/>
<feComposite in2="SourceAlpha" operator="in" result="effect1_backgroundBlur_271_1547"/>
<feBlend mode="normal" in="SourceGraphic" in2="effect1_backgroundBlur_271_1547" result="shape"/>
</filter>
<filter id="filter1_b_271_1547" x="-18" y="-18" width="60" height="60" filterUnits="userSpaceOnUse" color-interpolation-filters="sRGB">
<feFlood flood-opacity="0" result="BackgroundImageFix"/>
<feGaussianBlur in="BackgroundImageFix" stdDeviation="10"/>
<feComposite in2="SourceAlpha" operator="in" result="effect1_backgroundBlur_271_1547"/>
<feBlend mode="normal" in="SourceGraphic" in2="effect1_backgroundBlur_271_1547" result="shape"/>
</filter>
</defs>
</svg>
