<svg width="24" height="24" viewBox="0 0 24 24" fill="none" xmlns="http://www.w3.org/2000/svg">
<path d="M4.83972 10.4722C4.83972 10.4722 6.18673 9.58967 6.74899 8.86116C7.40643 8.00931 8.41953 6.89209 8.41953 6.89209C8.41953 6.89209 10.2966 7.6608 11.9993 7.78702C13.5409 7.90129 14.0526 7.05269 15.5792 7.25012C17.7911 7.53621 19.1593 10.4722 19.1593 10.4722" stroke="#E9E9E9" stroke-width="1.2" stroke-linecap="round" stroke-linejoin="round"/>
<path d="M19.1593 14.6573V11.7933V9.64539C19.1593 5.69114 15.9538 2.4856 11.9995 2.4856V2.4856C8.04527 2.4856 4.83972 5.69114 4.83972 9.64539V13.9413C4.83972 17.8955 8.04527 21.1011 11.9995 21.1011V21.1011" stroke="#E9E9E9" stroke-width="1.2" stroke-linecap="round"/>
<path d="M19.1603 11.7937H19.5554C20.3534 11.7937 21.0003 12.4406 21.0003 13.2386C21.0003 14.0365 20.3534 14.6834 19.5554 14.6834H19.1603V11.7937Z" fill="#E9E9E9" stroke="#E9E9E9" stroke-width="1.2" stroke-linejoin="round"/>
<path d="M4.84143 11.7937H4.44632C3.64834 11.7937 3.00146 12.4406 3.00146 13.2386C3.00146 14.0365 3.64834 14.6834 4.44632 14.6834H4.84143V11.7937Z" fill="#E9E9E9" stroke="#E9E9E9" stroke-width="1.2" stroke-linejoin="round"/>
<rect x="-0.6" y="0.6" width="1.74865" height="1.74865" rx="0.874324" transform="matrix(-1 0 0 1 12.9895 19.6267)" fill="#E9E9E9" stroke="#E9E9E9" stroke-width="1.2"/>
<circle cx="9" cy="12.1398" r="1.5" fill="#E9E9E9"/>
<circle cx="15" cy="12.1398" r="1.5" fill="#E9E9E9"/>
</svg>
